<?xml version="1.0" encoding="utf-8"?>
<!-- Generator: Adobe Illustrator 26.2.1, SVG Export Plug-In . SVG Version: 6.00 Build 0)  -->
<svg version="1.1" id="Layer_1" xmlns="http://www.w3.org/2000/svg" xmlns:xlink="http://www.w3.org/1999/xlink" x="0px" y="0px"
	 viewBox="0 0 112 112" style="enable-background:new 0 0 112 112;" xml:space="preserve">
<style type="text/css">
	.st0{fill:#ED3248;}
</style>
<g>
	<g>
		<path class="st0" d="M31.28,83.52c-1.73,0-3.54-0.15-5.43-0.48c-9.2-1.59-16.61-6.39-20.85-13.49c-3.95-6.6-4.81-14.57-2.38-21.85
			c2.71-8.13,8.92-14.12,17.46-16.88c10.66-3.42,24.26-1.26,33.35,5.32L47.66,46.4c-5.89-4.26-16.99-6.31-23.89-4.08
			c-3.39,1.09-7.82,3.57-9.7,9.2c-1.32,3.94-0.84,8.25,1.3,11.83c2.45,4.1,6.78,6.79,12.54,7.78c13.33,2.31,18.56-9.65,19.11-11.02
			l0.22-0.48l6.16-12.29c6.05-12.13,18.79-19.7,31.69-18.78c11.52,0.81,20.64,8.02,24.4,19.3c2.36,7.08,1.33,15.33-2.76,22.06
			c-4.33,7.13-11.39,11.79-19.88,13.13c-13.28,2.1-26-7.85-27.46-9l5.56-10.21c2.85,2.23,13.17,8.36,20.02,7.28
			c4.92-0.77,8.98-3.43,11.43-7.47c2.27-3.74,2.88-8.21,1.63-11.96c-3.01-9.01-9.93-10.81-13.79-11.08
			c-6.74-0.49-15.54,3.1-20.04,12.13l-6.05,12.07C55.3,71.87,46.43,83.52,31.28,83.52z"/>
	</g>
</g>
</svg>
