<?xml version="1.0" encoding="utf-8"?>
<!-- Generator: Adobe Illustrator 26.2.1, SVG Export Plug-In . SVG Version: 6.00 Build 0)  -->
<svg version="1.1" id="Layer_1" xmlns="http://www.w3.org/2000/svg" xmlns:xlink="http://www.w3.org/1999/xlink" x="0px" y="0px"
	 viewBox="0 0 2000 500" style="enable-background:new 0 0 2000 500;" xml:space="preserve">
<style type="text/css">
	.st0{fill:#FFFFFF;}
	.st1{fill:#ED3248;}
</style>
<g>
	<g>
		<path class="st0" d="M320.17,223.81c12.21,15.62,18.32,37.35,18.32,65.18c0,32.3-8.01,57.18-24.03,74.64
			c-16.02,17.47-38.21,26.2-66.57,26.2c-13.39,0-28.1-3.02-44.12-9.06l-27.57,9.85l-6.3-5.12l2.75-74.85l-2.36-197.34l51.99-3.94
			l-1.57,119.35h2.36c7.35-7.09,14.44-12.8,21.27-17.14c6.82-4.33,14.44-8.07,22.85-11.22C290.3,200.37,307.96,208.19,320.17,223.81
			z M278.62,341.38c7.35-9.46,11.03-23.89,11.03-43.32c0-18.12-2.96-31.9-8.86-41.36c-5.91-9.46-14.77-14.18-26.59-14.18
			c-10.77,0-22.06,5.51-33.88,16.55l-0.79,44.9l0.79,44.51c9.71,4.72,18.91,7.09,27.57,7.09
			C261.02,355.56,271.26,350.84,278.62,341.38z"/>
		<path class="st0" d="M891.08,340.6l4.33,3.94l-5.12,31.12c-13.39,6.83-27.05,11.03-40.96,12.6c-35.45-3.67-53.17-21-53.17-51.99
			l1.97-32.7l-0.39-67.75H773.3l-1.97-2.76l2.75-28.75h23.24v-30.33l47.66-15.36l3.54,3.15l-1.18,42.54h46.87l1.58,2.76l-2.37,28.75
			h-46.87l-2.37,88.23c0,8.41,1.58,14.38,4.73,17.92s8.4,5.32,15.76,5.32C873.09,347.29,881.88,345.07,891.08,340.6z"/>
		<path class="st0" d="M1062.82,300.82l-106.35,0.79c2.36,32.83,19.04,49.24,50.02,49.24c16.28,0,34.4-4.6,54.36-13.79l4.34,2.76
			l-7.88,38.99c-19.96,7.35-38.73,11.03-56.33,11.03c-28.89,0-51.54-8.41-67.94-25.21c-16.42-16.8-24.62-40.04-24.62-69.72
			c0-29.41,8-52.71,24.02-69.92c16.02-17.19,37.68-25.8,64.99-25.8c23.37,0,41.42,6.36,54.16,19.1
			c12.74,12.74,19.1,30.53,19.1,53.37c0,6.05-0.66,13.66-1.97,22.85L1062.82,300.82z M1025,265.76c0-10.51-2.36-18.45-7.09-23.83
			s-11.69-8.08-20.88-8.08c-10.24,0-18.78,3.35-25.6,10.05c-6.83,6.7-11.42,16.35-13.78,28.96l66.57-1.58L1025,265.76z"/>
		<path class="st0" d="M1218.79,208.64l-7.09,38.6l-6.3,1.97c-7.62-4.99-15.24-8.8-22.85-11.42c-7.62-2.62-14.32-3.95-20.09-3.95
			c-6.3,0-11.29,1.65-14.97,4.93c-3.68,3.29-5.51,7.29-5.51,12.01c0,5.52,2.43,9.99,7.29,13.39c4.86,3.42,12.53,7.23,23.04,11.42
			c10.5,4.2,19.16,8.28,26,12.22c6.82,3.94,12.66,9.39,17.53,16.34c4.86,6.96,7.29,15.56,7.29,25.81c0,10.51-2.7,20.29-8.08,29.34
			c-5.39,9.06-13.59,16.42-24.62,22.06c-11.03,5.65-24.55,8.47-40.57,8.47c-18.91,0-38.47-3.94-58.69-11.81l5.91-40.97l5.12-3.15
			c8.14,6.83,17.19,12.27,27.18,16.35c9.98,4.08,18.78,6.1,26.4,6.1c7.09,0,12.6-1.77,16.54-5.31c3.94-3.54,5.91-7.82,5.91-12.8
			c0-5.51-2.43-9.98-7.29-13.39c-4.86-3.41-12.54-7.22-23.04-11.42c-10.77-4.72-19.57-8.99-26.39-12.8
			c-6.83-3.8-12.67-9.25-17.53-16.34c-4.86-7.09-7.29-15.89-7.29-26.4c0-17.07,6.43-31.05,19.3-41.95
			c12.86-10.89,30.33-16.34,52.39-16.34C1186.23,199.59,1203.04,202.6,1218.79,208.64z"/>
		<path class="st0" d="M1370.83,271.66c0.26-9.19-1.77-16.34-6.11-21.47c-4.33-5.12-10.57-7.68-18.71-7.68
			c-11.82,0-24.42,5.65-37.82,16.94v45.69l2.37,80.75h-52.39l2.75-75.63l-1.97-103.98l49.63-4.34v26.79h2.76
			c14.44-13.13,30.2-22.59,47.27-28.36c19.95,0,35.18,4.53,45.69,13.59c10.5,9.05,15.49,22.12,14.97,39.19l-1.18,52.39l2.36,80.36
			h-52.78L1370.83,271.66z"/>
		<path class="st0" d="M1641.43,351.62l-4.72,27.57c-9.72,6.3-19.7,9.58-29.94,9.85c-7.62-1.32-13.92-4.34-18.91-9.06
			c-4.99-4.72-8.8-11.55-11.43-20.48h-3.54c-14.97,14.71-30.47,24.29-46.48,28.75c-19.96,0-35.13-4.53-45.49-13.58
			c-10.38-9.06-15.43-22.12-15.17-39.2l0.79-46.48l-1.97-82.71l50.81-4.34l-1.18,116.2c-0.27,9.2,1.58,16.15,5.51,20.88
			c3.94,4.73,9.85,7.09,17.72,7.09c11.55,0,22.97-5.12,34.27-15.36V206.28l50.02-4.34l-3.54,136.29c0,4.2,0.72,7.23,2.17,9.06
			c1.44,1.84,3.74,2.76,6.89,2.76c2.89,0,6.43-0.53,10.63-1.58L1641.43,351.62z"/>
		<path class="st0" d="M1723.36,305.15l2.75,80.75h-52.38l2.75-76.02l-2.36-196.55l52.39-3.94L1723.36,305.15z"/>
		<path class="st0" d="M1826.94,305.15l2.75,80.75h-52.38l2.75-76.02l-2.36-196.55l52.39-3.94L1826.94,305.15z"/>
	</g>
	<g>
		<path class="st1" d="M476.18,388.66c-6.02,0-12.32-0.53-18.91-1.67c-32.02-5.55-57.79-22.22-72.56-46.95
			c-13.73-22.98-16.75-50.7-8.29-76.04c9.44-28.29,31.02-49.15,60.76-58.72c37.09-11.92,84.42-4.37,116.05,18.5l-20.05,35.73
			c-20.51-14.82-59.11-21.94-83.12-14.21c-11.79,3.8-27.22,12.43-33.76,32.01c-4.58,13.71-2.94,28.71,4.51,41.16
			c8.51,14.25,23.6,23.62,43.64,27.09c46.38,8.04,64.57-33.58,66.51-38.35l0.75-1.68l21.42-42.76
			c21.04-42.22,65.39-68.55,110.28-65.35c40.07,2.81,71.81,27.92,84.91,67.16c8.23,24.64,4.63,53.34-9.62,76.77
			c-15.08,24.81-39.65,41.03-69.17,45.68c-46.2,7.31-90.46-27.31-95.55-31.33l19.36-35.53c9.92,7.74,45.84,29.1,69.66,25.34
			c17.11-2.69,31.23-11.92,39.78-25.99c7.91-13,10.02-28.56,5.67-41.62c-10.46-31.34-34.55-37.6-47.97-38.54
			c-23.45-1.7-54.07,10.77-69.73,42.2l-21.04,41.99C559.76,348.13,528.88,388.66,476.18,388.66z"/>
	</g>
</g>
</svg>
